<svg xmlns="http://www.w3.org/2000/svg" width="225" height="225" viewBox="0 0 225 225">
  <defs>
    <style>
      .cls-1 {
        fill-rule: evenodd;
      }
    </style>
  </defs>
  <path id="Kształt_2" data-name="Kształt 2" class="cls-1" d="M112.5,0A112.5,112.5,0,1,1,0,112.5,112.5,112.5,0,0,1,112.5,0Zm-8.954,101.429c1.59-4.117-.45-6.179-2.266-6.179-8.386,0-19.267,19.926-23.34,19.926a3.186,3.186,0,0,1-2.949-2.98c0-4.124,9.97-13.739,12.919-16.719,9.064-8.7,20.85-15.345,33.993-15.345,9.746,0,20.174,5.952,12.013,28.175L117.6,152.967c-1.358,3.435-3.849,9.166-3.849,12.83,0,1.6.9,3.206,2.715,3.206,6.8,0,19.266-19.471,22.441-19.471,1.132,0,2.715,1.373,2.715,3.435,0,6.642-26.513,35.045-49.4,35.045-8.162,0-13.827-3.89-13.827-12.594,0-10.994,7.706-29.776,9.3-33.674Zm12.237-45.122c0-10.077,8.612-18.319,18.584-18.319,9.07,0,15.641,6.179,15.641,15.574,0,10.539-8.612,18.327-18.808,18.327C121.9,71.889,115.783,65.7,115.783,56.307Z"/>
</svg>
