<svg enable-background="new 0 0 32 32" height="32px" id="Слой_1" version="1.1" viewBox="0 0 32 32" width="32px" xml:space="preserve" xmlns="http://www.w3.org/2000/svg" xmlns:xlink="http://www.w3.org/1999/xlink"><g id="Menu"><path d="M1,7h30c0.552,0,1-0.448,1-1c0-0.552-0.448-1-1-1H1C0.448,5,0,5.448,0,6C0,6.552,0.448,7,1,7z" fill="#ccbfa2"/><path d="M31,15H1c-0.552,0-1,0.448-1,1c0,0.552,0.448,1,1,1h30c0.552,0,1-0.448,1-1C32,15.448,31.552,15,31,15z" fill="#ccbfa2"/><path d="M31,25H1c-0.552,0-1,0.448-1,1c0,0.552,0.448,1,1,1h30c0.552,0,1-0.448,1-1C32,25.448,31.552,25,31,25z" fill="#ccbfa2"/></g><g/><g/><g/><g/><g/><g/></svg>